<mxfile host="app.diagrams.net" modified="2023-10-06T17:42:04.635Z" agent="Mozilla/5.0 (Windows NT 10.0; Win64; x64) AppleWebKit/537.36 (KHTML, like Gecko) Chrome/115.0.0.0 Safari/537.36" etag="09QB6PLmL1PcuJMl9Txo" version="22.0.2" type="github">
  <diagram name="Page-1" id="wvW3ehxdYdoYtSaxa3fH">
    <mxGraphModel dx="1434" dy="790" grid="1" gridSize="10" guides="1" tooltips="1" connect="1" arrows="1" fold="1" page="1" pageScale="1" pageWidth="850" pageHeight="1100" math="0" shadow="0">
      <root>
        <mxCell id="0" />
        <mxCell id="1" parent="0" />
        <mxCell id="StfwGNy7qWY20ujgkw8x-3" value="" style="edgeStyle=orthogonalEdgeStyle;rounded=0;orthogonalLoop=1;jettySize=auto;html=1;" parent="1" source="StfwGNy7qWY20ujgkw8x-1" target="StfwGNy7qWY20ujgkw8x-2" edge="1">
          <mxGeometry relative="1" as="geometry" />
        </mxCell>
        <mxCell id="StfwGNy7qWY20ujgkw8x-1" value="1. Data Ingestion" style="rounded=1;whiteSpace=wrap;html=1;" parent="1" vertex="1">
          <mxGeometry x="40" y="190" width="120" height="60" as="geometry" />
        </mxCell>
        <mxCell id="StfwGNy7qWY20ujgkw8x-5" value="" style="edgeStyle=orthogonalEdgeStyle;rounded=0;orthogonalLoop=1;jettySize=auto;html=1;" parent="1" source="StfwGNy7qWY20ujgkw8x-2" edge="1">
          <mxGeometry relative="1" as="geometry">
            <mxPoint x="440" y="220" as="targetPoint" />
          </mxGeometry>
        </mxCell>
        <mxCell id="StfwGNy7qWY20ujgkw8x-2" value="Get malicious process&lt;br&gt;(Fetch Incident)" style="whiteSpace=wrap;html=1;rounded=1;" parent="1" vertex="1">
          <mxGeometry x="240" y="190" width="120" height="60" as="geometry" />
        </mxCell>
        <mxCell id="QZf3iz8cE-q2q2WU4exR-2" value="" style="edgeStyle=orthogonalEdgeStyle;rounded=0;orthogonalLoop=1;jettySize=auto;html=1;" parent="1" source="QZf3iz8cE-q2q2WU4exR-1" target="StfwGNy7qWY20ujgkw8x-1" edge="1">
          <mxGeometry relative="1" as="geometry" />
        </mxCell>
        <mxCell id="QZf3iz8cE-q2q2WU4exR-1" value="Playbook&lt;br&gt;Acronis Threat Hunting" style="rounded=1;whiteSpace=wrap;html=1;" parent="1" vertex="1">
          <mxGeometry x="40" y="63" width="120" height="60" as="geometry" />
        </mxCell>
        <mxCell id="QZf3iz8cE-q2q2WU4exR-4" value="" style="edgeStyle=orthogonalEdgeStyle;rounded=0;orthogonalLoop=1;jettySize=auto;html=1;" parent="1" source="QZf3iz8cE-q2q2WU4exR-3" target="StfwGNy7qWY20ujgkw8x-1" edge="1">
          <mxGeometry relative="1" as="geometry" />
        </mxCell>
        <mxCell id="QZf3iz8cE-q2q2WU4exR-3" value="D3 - Triggers" style="rounded=1;whiteSpace=wrap;html=1;" parent="1" vertex="1">
          <mxGeometry x="40" y="310" width="120" height="60" as="geometry" />
        </mxCell>
        <mxCell id="9GNjWfNAqhbEPRqdgNwU-5" value="" style="edgeStyle=orthogonalEdgeStyle;rounded=0;orthogonalLoop=1;jettySize=auto;html=1;" edge="1" parent="1" source="9GNjWfNAqhbEPRqdgNwU-1" target="9GNjWfNAqhbEPRqdgNwU-4">
          <mxGeometry relative="1" as="geometry" />
        </mxCell>
        <mxCell id="9GNjWfNAqhbEPRqdgNwU-1" value="Gather Affected devices (Hostname, IP Address, OS Version)" style="rounded=1;whiteSpace=wrap;html=1;" vertex="1" parent="1">
          <mxGeometry x="630" y="190" width="120" height="60" as="geometry" />
        </mxCell>
        <mxCell id="9GNjWfNAqhbEPRqdgNwU-3" value="" style="edgeStyle=orthogonalEdgeStyle;rounded=0;orthogonalLoop=1;jettySize=auto;html=1;" edge="1" parent="1" source="9GNjWfNAqhbEPRqdgNwU-2" target="9GNjWfNAqhbEPRqdgNwU-1">
          <mxGeometry relative="1" as="geometry" />
        </mxCell>
        <mxCell id="9GNjWfNAqhbEPRqdgNwU-2" value="2. Investigation" style="rounded=1;whiteSpace=wrap;html=1;" vertex="1" parent="1">
          <mxGeometry x="440" y="190" width="120" height="60" as="geometry" />
        </mxCell>
        <mxCell id="9GNjWfNAqhbEPRqdgNwU-4" value="Scan the Devices" style="whiteSpace=wrap;html=1;rounded=1;" vertex="1" parent="1">
          <mxGeometry x="830" y="190" width="120" height="60" as="geometry" />
        </mxCell>
        <mxCell id="9GNjWfNAqhbEPRqdgNwU-6" value="" style="edgeStyle=orthogonalEdgeStyle;rounded=0;orthogonalLoop=1;jettySize=auto;html=1;entryX=0;entryY=0.5;entryDx=0;entryDy=0;" edge="1" parent="1" target="9GNjWfNAqhbEPRqdgNwU-7">
          <mxGeometry relative="1" as="geometry">
            <mxPoint x="750" y="200" as="sourcePoint" />
            <mxPoint x="830" y="200" as="targetPoint" />
          </mxGeometry>
        </mxCell>
        <mxCell id="9GNjWfNAqhbEPRqdgNwU-7" value="Scan the Devices" style="whiteSpace=wrap;html=1;rounded=1;" vertex="1" parent="1">
          <mxGeometry x="830" y="100" width="120" height="60" as="geometry" />
        </mxCell>
        <mxCell id="9GNjWfNAqhbEPRqdgNwU-8" value="Scan the Devices" style="whiteSpace=wrap;html=1;rounded=1;" vertex="1" parent="1">
          <mxGeometry x="830" y="280" width="120" height="60" as="geometry" />
        </mxCell>
        <mxCell id="9GNjWfNAqhbEPRqdgNwU-9" value="" style="edgeStyle=orthogonalEdgeStyle;rounded=0;orthogonalLoop=1;jettySize=auto;html=1;entryX=0;entryY=0.5;entryDx=0;entryDy=0;exitX=1;exitY=0.75;exitDx=0;exitDy=0;" edge="1" parent="1" source="9GNjWfNAqhbEPRqdgNwU-1" target="9GNjWfNAqhbEPRqdgNwU-8">
          <mxGeometry relative="1" as="geometry">
            <mxPoint x="760" y="210" as="sourcePoint" />
            <mxPoint x="840" y="140" as="targetPoint" />
          </mxGeometry>
        </mxCell>
      </root>
    </mxGraphModel>
  </diagram>
</mxfile>
